<?xml version="1.0" encoding="UTF-8"?>
<svg width="890px" height="396px" viewBox="0 0 890 396" version="1.1" xmlns="http://www.w3.org/2000/svg" xmlns:xlink="http://www.w3.org/1999/xlink">
    <title>Sauce logo w space</title>
    <g id="Sauce-logo" stroke="none" stroke-width="1" fill="none" fill-rule="evenodd">
        <g id="Sauce-logo-w-space">
            <rect id="Rectangle" stroke-opacity="0" stroke="#979797" x="0.5" y="0.5" width="889" height="395"></rect>
            <g id="SAUCE-LOGO-MASTER-Copy-3" transform="translate(135, 84)" fill="#000000" fill-rule="nonzero">
                <path d="M619.618,101.288 C619.36,108.715 613.083,114.017 604.745,113.876 C597.849,113.746 592.434,107.439 592.799,99.961 C593.16,92.505 599.69,86.745 607.495,86.987 C615.084,87.23 619.91,92.936 619.618,101.288" id="Path"></path>
                <path d="M145.938,16.296 C135.282,4.539 121.476,-0.333 106.114,1.118 C85.463,3.078 70.098,14.257 59.737,31.985 C53.157,43.225 50.681,55.557 52.819,68.572 C54.134,76.579 56.366,84.344 59.713,91.785 C63.297,99.742 67.375,107.437 71.641,115.05 C77.527,125.569 83.203,136.18 87.893,147.292 C91.405,155.577 93.908,164.111 94.489,173.124 C94.954,180.496 94.003,187.59 90.587,194.28 C84.073,207.022 73.256,213.169 59.459,213.757 C47.691,214.273 38.439,208.946 33.049,198.326 C28.527,189.42 29.701,182.689 35.708,175.897 C37.356,174.031 39.124,172.263 40.913,170.53 C43.015,168.504 44.863,166.282 46.392,163.781 C53.877,151.532 46.927,138.18 32.593,137.324 C31.761,137.271 30.923,137.311 30.108,137.363 C21.298,138.01 14.292,142.042 8.834,148.839 C3.839,155.051 1.643,162.338 1.022,170.159 C-0.091,184.08 3.258,196.672 13.228,206.77 C26.231,219.935 42.281,226.919 60.709,226.888103 C77.695,226.867 92.927,221.003 105.299,209.015 C119.412,195.337 127.051,178.77 125.983,158.837 C125.325,146.696 122.204,135.088 116.82,124.136 C112.977,116.304 108.864,108.618 104.54,101.037 C96.895,87.629 90.815,73.554 87.406,58.429 C86.316,53.558 85.501,48.654 85.885,43.121 C85.969,40.928 86.134,38.235 86.913,35.618 C87.669,33.034 88.177,30.357 89.179,27.865 C91.21,22.813 93.912,18.08 98.487,14.869 C107.327,8.649 115.701,8.965 123.573,15.608 C128.224,19.52 129.429,24.408 127.407,30.193 C126.157,33.772 124.085,36.853 121.711,39.77 C118.668,43.514 116.373,47.637 115.237,52.412 C114.531,55.411 114.91,58.176 116.234,60.861 C118.713,65.891 122.818,68.804 128.33,69.587 C137.094,70.837 145.998,66.131 150.82,58.068 C159.317,43.854 154.781,26.054 145.938,16.296 M24.186,151.828 C23.163,152.843 22.074,153.82 20.89,154.633 C16.13,157.915 12.938,162.361 10.993,167.748 C10.637,168.715 10.292,169.694 9.835,170.61 C9.697,170.867 9.178,170.956 8.819,171.052 C8.761,171.05 8.56,170.719 8.533,170.546 C8.486,170.132 8.493,169.72 8.463,168.712 C10.096,160.55 13.016,152.521 21.096,147.58 C22.534,146.711 24.143,144.935 26.057,146.539 C27.222,147.513 26.446,149.592 24.186,151.828 M130.01,43.517 C129.766,44.078 129.364,44.561 129.031,45.083 C126.253,49.469 124.728,54.007 127.205,59.083 C127.661,60.044 127.961,61.192 126.843,61.813 C125.831,62.382 124.826,61.635 124.056,60.991 C122.075,59.361 121.286,57.456 121.402,54.864 C121.384,53.089 122.156,51.364 123.135,49.809 C124.795,47.201 126.578,44.666 128.482,42.241 C129.469,40.996 130.088,39.332 131.82,38.787 C132.768,40.95 130.693,41.971 130.01,43.517" id="Shape"></path>
                <path d="M572.954,91.917 C570.139,89.342 566.717,87.916 562.871,87.443 C556.42,86.66 550.515,88.319 544.868,91.203 C536.5,95.477 528.859,100.806 521.891,107.105 C517.579,111.015 513.28,114.938 508.829,118.683 C503.066,123.518 496.686,127.385 489.485,129.759 C487.124,130.536 484.736,131.153 482.176,131.097 C475.12,130.949 469.143,125.37 468.583,118.27 C468.42,116.202 469.196,115.073 471.182,114.756 C472.818,114.504 474.494,114.425 476.149,114.288 C495.798,112.657 509.899,102.572 519.328,85.635 C522.701,79.583 524.512,72.976 524.509,65.96 C524.509,57.948 520.975,52.042 514.033,48.134 C508.597,45.065 502.847,43.984 496.632,45.159 C487.16,46.93 478.983,51.316 471.91,57.634 C459.455,68.748 449.713,81.734 445.511,98.274 C445.058,100.06 444.57,101.834 442.974,103.129 C434.549,109.976 425.33,114.792 414.185,114.994 C402.891,115.178 394.365,106.682 394.579,95.454 C394.77,85.414 398.072,76.338 403.2,67.843 C405.79,63.551 409.019,59.76 412.775,56.44 C415.142,54.346 417.785,52.712 420.867,51.935 C423.568,51.253 426.281,50.996 428.324,53.465 C430.14,55.67 429.709,58.167 428.713,60.522 C427.989,62.239 427.028,63.863 426.003,65.415 C424.732,67.345 423.704,69.378 423.037,71.566 C421.402,76.946 423.959,81.568 429.388,83.16 C434.364,84.615 439.243,82.872 442.335,78.147 C450.666,65.458 446.79,51.478 437.063,43.474 C434.794,41.624 432.172,40.467 429.266,39.776 C422.16,38.08 415.309,38.697 408.471,41.157 C394.164,46.322 383.676,56.055 375.606,68.584 C370.133,77.062 366.76,86.421 365.46,96.453 C365.095,99.273 364.074,101.65 362.201,103.687 C360.666,105.364 359.13,107.086 357.409,108.559 C354.03,111.439 350.069,113.33 345.736,114.172 C339.983,115.3 336.007,112.783 334.393,107.131 C333.651,104.53 333.504,101.868 333.832,99.114 C334.532,93.196 337.008,87.971 339.863,82.881 C342.708,77.811 345.697,72.829 348.497,67.735 C350.92,63.331 352.524,58.602 352.85,53.559 C353.229,47.889 351.135,44.583 346.07,42.117 C341.106,39.701 336.315,40.543 331.762,43.069 C327.352,45.521 323.773,48.975 320.76,53.041 C317.771,57.084 315.539,61.531 313.633,66.142 C308.991,77.327 305.594,88.825 305.289,100.508 C305.341,102.719 305.248,104.398 305.454,106.044 C305.819,108.923 304.56,110.796 302.181,112.181 C299.659,113.648 297.057,114.918 294.228,115.673 C287.596,117.434 283.434,114.987 281.618,108.307 C280.181,103.041 281.111,98.016 283.124,93.101 C285.4,87.513 288.333,82.252 291.378,77.056 C294.012,72.572 296.532,68.036 298.26,63.107 C299.362,59.967 300.296,56.774 300.186,53.392 C299.944,46.353 295.817,42.284 288.748,42.18 C284.447,42.12 280.61,43.616 277.126,46.056 C271.925,49.683 267.864,54.338 264.802,59.889 C260.046,68.482 256.707,77.591 254.445,87.152 C252.86,93.873 252.584,100.715 251.933,107.54 C251.75,109.408 251.807,111.288 250.642,112.891 C246.348,118.817 240.755,122.986 233.661,124.816 C228.48,126.155 224.289,123.845 222.193,118.707 C220.782,115.217 220.274,111.563 221.226,107.741 C222.936,100.82 225.969,94.467 229.272,88.218 C231.993,83.086 234.817,77.992 236.598,72.426 C237.733,68.864 238.663,65.247 238.266,61.428 C237.508,54.169 232.441,50.351 225.285,51.801 C218.94,53.083 213.713,56.297 209.777,61.462 C207.893,63.945 206.143,66.527 204.381,69.085 C203.458,70.425 202.417,70.397 201.248,69.494 C200.752,69.115 200.304,68.681 199.807,68.302 C193.881,63.767 187.287,62.154 179.879,63.396 C168.132,65.366 158.519,71.227 150.31,79.515 C138.973,90.947 132.489,104.95 129.768,120.67 C128.272,129.318 129.868,137.671 134.106,145.373 C141.068,158.038 153.691,162.532 167.008,157.205 C175.272,153.91 182.344,148.989 187.937,142.005 C189.631,139.891 191.39,137.847 193.193,135.84 C195.772,132.934 195.988,132.954 198.278,135.755 C198.408,135.91 198.514,136.087 198.643,136.254 C202.744,141.832 208.446,144.376 215.183,144.943 C221.988,145.503 228.379,144.005 234.464,141.028 C238.215,139.196 241.691,136.927 244.866,134.22 C247.387,132.053 249.799,129.767 252.285,127.576 C254.987,125.2 255.503,125.191 258.052,127.387 C258.69,127.922 259.242,128.555 259.868,129.101 C264.228,132.907 269.287,135.007 275.09,135.472 C283.035,136.121 290.353,134.177 297.169,130.262 C300.22,128.499 303.026,126.346 305.938,124.349 C308.65,122.477 308.838,122.371 310.903,125.093 C316.033,131.877 323.218,134.046 331.201,133.919 C338.372,133.799 345.147,131.713 351.188,127.749 C354.995,125.233 358.621,122.445 362.312,119.752 C363.308,119.023 364.188,118.126 365.196,117.398 C366.217,116.669 367.155,116.898 367.824,117.96 C368.599,119.188 369.246,120.501 370.081,121.687 C374.561,128.176 380.038,133.467 387.971,135.352 C394.328,136.864 400.709,136.739 407.049,134.873 C418.941,131.377 429.854,126.07 439.433,118.089 C441.866,116.056 442.885,116.518 443.617,119.586 C443.761,120.189 443.751,120.828 443.894,121.431 C446.86,133.879 457.204,142.634 470.003,143.714 C479.989,144.543 489.466,142.657 498.408,138.342 C504.188,135.533 509.728,132.232 515.361,129.117 C520.266,126.414 525.055,123.477 530.074,120.997 C539.15,116.528 548.671,113.97 558.949,114.904 C561.399,115.137 563.939,114.918 566.393,114.58 C572.199,113.798 575.71,110.077 577.296,104.764 C578.805,99.675 576.714,95.339 572.954,91.917 M156.058,87.944 C155.378,88.986 154.565,89.943 152.453,89.805 C152.402,89.7 151.935,89.185 151.892,88.645 C151.827,87.864 151.827,86.914 152.224,86.291 C157.087,78.551 164.435,74.318 172.978,71.861 C173.222,71.792 173.82,72.177 173.878,72.42 C173.931,72.731 173.667,73.222 173.394,73.437 C172.75,73.944 172.031,74.378 171.315,74.767 C165.238,78.021 159.858,82.062 156.058,87.944 M174.996,128.03 C173.399,129.36 171.617,130.441 169.504,130.819 C166.353,131.386 164.318,130.167 163.298,127.107 C162.488,124.698 162.37,122.186 162.811,119.724 C164.994,107.526 170.247,96.943 179.493,88.499 C181.194,86.956 183.067,85.628 185.296,84.981 C189.162,83.852 191.833,85.402 192.67,89.379 C193.052,91.183 192.96,93.078 193.11,95.146 C190.857,108.086 185.385,119.402 174.996,128.03 M211.786,72.158 C211.555,72.433 211.104,72.537 210.751,72.714 C210.571,72.419 210.155,72.033 210.233,71.853 C212.457,66.582 216.044,62.488 221.066,59.733 C221.735,59.376 222.651,59.387 223.451,59.391 C224.32,59.399 225.019,59.879 225.32,60.73 C225.644,61.615 225.222,62.293 224.542,62.844 C224.387,62.974 224.22,63.114 224.033,63.185 C219.104,65.017 215.074,68.072 211.786,72.158 M273.32,62.652 C273.078,62.914 272.596,62.96 272.234,63.102 C272.125,62.742 271.815,62.304 271.931,62.046 C274.11,57.23 277.455,53.41 281.942,50.584 C282.826,50.032 283.802,49.747 284.872,49.857 C285.762,49.934 286.453,50.3 286.837,51.108 C287.253,51.975 286.905,52.771 286.294,53.336 C285.384,54.162 284.429,54.985 283.36,55.552 C279.694,57.491 276.16,59.562 273.32,62.652 M328.658,57.697 C327.813,58.377 326.958,60.189 325.856,59.083 C325.19,58.421 326.634,56.969 327.334,55.996 C329.407,53.132 332.092,50.893 335.034,48.976 C336.57,47.975 338.281,47.154 340.252,47.582 C341.148,47.774 341.609,48.403 341.754,49.669 C341.471,50.091 341.176,50.957 340.562,51.363 C339.368,52.129 338.026,52.682 336.715,53.247 C333.887,54.472 331.09,55.732 328.658,57.697 M388.629,67.652 C388.131,68.715 387.464,69.953 385.892,69.59 C384.772,69.329 384.398,67.606 385.044,65.807 C385.256,65.233 385.501,64.65 385.848,64.14 C390.606,56.909 396.625,51.25 405.264,48.98 C404.623,50.598 403.292,51.609 401.953,52.551 C396.301,56.511 391.638,61.331 388.629,67.652 M495.374,71.286 C497.782,69.308 500.441,67.606 503.501,66.805 C506.781,65.957 508.835,67.957 508.124,71.985 C507.585,73.195 506.993,75.238 505.88,76.947 C498.723,87.884 489.091,95.759 476.681,100.089 C475.911,100.35 475.022,100.786 474.457,99.901 C473.979,99.145 474.375,98.283 474.754,97.557 C480.047,87.56 486.566,78.502 495.374,71.286 M471.381,66.891 C472.217,65.478 473.121,64.057 474.266,62.9 C479.108,57.95 484.895,54.5 491.505,52.464 C492.074,52.286 492.728,52.295 493.107,52.966 C492.942,53.312 492.871,53.812 492.587,53.994 C491.215,54.899 489.8,55.746 488.375,56.57 C483.489,59.365 479.158,62.771 475.997,67.516 C475.652,68.026 475.284,68.523 474.872,68.995 C474.048,69.951 473.105,70.981 471.76,70.16 C470.46,69.353 470.733,67.981 471.381,66.891" id="Shape"></path>
            </g>
        </g>
    </g>
</svg>